<svg xmlns="http://www.w3.org/2000/svg" xmlns:xlink="http://www.w3.org/1999/xlink" viewBox="0 0 1280 800">
  <defs>
    <style>
      .cls-1, .cls-2, .cls-68 {
        fill: #faf8f7;
      }

      .cls-1, .cls-11, .cls-3, .cls-5, .cls-7 {
        clip-rule: evenodd;
      }

      .cls-3, .cls-31, .cls-4, .cls-44, .cls-48, .cls-53, .cls-55, .cls-56, .cls-59, .cls-60, .cls-61, .cls-9 {
        fill: #c6bcb3;
      }

      .cls-10, .cls-24, .cls-43, .cls-45, .cls-5, .cls-58, .cls-6 {
        fill: #fff;
      }

      .cls-42, .cls-7, .cls-8 {
        fill: #d4d4d4;
      }

      .cls-10, .cls-17, .cls-20, .cls-56, .cls-60, .cls-9 {
        fill-rule: evenodd;
      }

      .cls-11, .cls-12 {
        fill: #ece9e6;
      }

      .cls-13 {
        clip-path: url(#clip-Checkout_-_Pago_-_Sin_registro);
      }

      .cls-14, .cls-15, .cls-17, .cls-18, .cls-20, .cls-22, .cls-25, .cls-49, .cls-50 {
        fill: #393939;
      }

      .cls-15, .cls-44, .cls-45, .cls-49, .cls-50, .cls-51 {
        font-size: 13px;
      }

      .cls-15, .cls-50, .cls-52, .cls-53 {
        font-family: Raleway-Medium, Raleway;
      }

      .cls-15, .cls-50, .cls-52, .cls-53, .cls-55 {
        font-weight: 500;
      }

      .cls-16, .cls-19, .cls-21, .cls-23, .cls-54, .cls-57 {
        fill: none;
      }

      .cls-16, .cls-17, .cls-57 {
        stroke: #393939;
      }

      .cls-16, .cls-23, .cls-43 {
        stroke-width: 1.5px;
      }

      .cls-17, .cls-63, .cls-64 {
        stroke-width: 0.5px;
      }

      .cls-18, .cls-22, .cls-25, .cls-55, .cls-58, .cls-61 {
        font-size: 12px;
      }

      .cls-18, .cls-22, .cls-31, .cls-42, .cls-44, .cls-45, .cls-48, .cls-51, .cls-58, .cls-59 {
        font-family: Raleway-Bold, Raleway;
        font-weight: 700;
      }

      .cls-21, .cls-24 {
        stroke: #ece9e6;
      }

      .cls-22, .cls-26 {
        text-decoration: underline;
      }

      .cls-23 {
        stroke: #988575;
      }

      .cls-25, .cls-49 {
        font-family: Raleway-SemiBold, Raleway;
        font-weight: 600;
      }

      .cls-26, .cls-51 {
        fill: #988575;
      }

      .cls-27 {
        clip-path: url(#clip-path);
      }

      .cls-28 {
        clip-path: url(#clip-path-2);
      }

      .cls-29 {
        clip-path: url(#clip-path-3);
      }

      .cls-30 {
        clip-path: url(#clip-path-4);
      }

      .cls-31, .cls-42 {
        font-size: 10px;
      }

      .cls-31, .cls-42, .cls-48 {
        letter-spacing: 0.05em;
      }

      .cls-32 {
        clip-path: url(#clip-path-5);
      }

      .cls-33 {
        clip-path: url(#clip-path-6);
      }

      .cls-34 {
        clip-path: url(#clip-path-7);
      }

      .cls-35 {
        clip-path: url(#clip-path-8);
      }

      .cls-36 {
        clip-path: url(#clip-path-9);
      }

      .cls-37 {
        clip-path: url(#clip-path-11);
      }

      .cls-38 {
        clip-path: url(#clip-path-13);
      }

      .cls-39 {
        clip-path: url(#clip-path-14);
      }

      .cls-40 {
        clip-path: url(#clip-path-15);
      }

      .cls-41 {
        clip-path: url(#clip-path-16);
      }

      .cls-43, .cls-54, .cls-56 {
        stroke: #c6bcb3;
      }

      .cls-46 {
        clip-path: url(#clip-path-17);
      }

      .cls-47 {
        clip-path: url(#clip-path-18);
      }

      .cls-48, .cls-52, .cls-53, .cls-59 {
        font-size: 14px;
      }

      .cls-49, .cls-50 {
        letter-spacing: 0.03em;
      }

      .cls-52 {
        fill: #b7b7b7;
      }

      .cls-55 {
        font-family: Rubik-Medium, Rubik;
      }

      .cls-56 {
        stroke-width: 0.2px;
      }

      .cls-58 {
        letter-spacing: 0.024em;
      }

      .cls-61 {
        font-family: SegoeUI, Segoe UI;
      }

      .cls-62 {
        fill: rgba(34,31,31,0.26);
      }

      .cls-63, .cls-64 {
        fill: #f1f1f1;
      }

      .cls-63 {
        stroke: rgba(255,255,255,0.8);
      }

      .cls-64 {
        stroke: rgba(255,255,255,0.12);
      }

      .cls-65 {
        clip-path: url(#clip-path-23);
      }

      .cls-66 {
        clip-path: url(#clip-path-24);
      }

      .cls-67, .cls-68 {
        stroke: none;
      }

      .cls-69 {
        filter: url(#Knob-2);
      }

      .cls-70 {
        filter: url(#Knob);
      }
    </style>
    <clipPath id="clip-path">
      <path id="Path_14076" data-name="Path 14076" class="cls-1" d="M15-52H235v11.5H15Z" transform="translate(-15 52)"/>
    </clipPath>
    <clipPath id="clip-path-2">
      <path id="Path_14075" data-name="Path 14075" class="cls-2" d="M-285,497.5H301.667V-112H-285Z" transform="translate(285 112)"/>
    </clipPath>
    <clipPath id="clip-path-3">
      <path id="Path_14079" data-name="Path 14079" class="cls-3" d="M15-52H125.5v11.5H15Z" transform="translate(-15 52)"/>
    </clipPath>
    <clipPath id="clip-path-4">
      <path id="Path_14078" data-name="Path 14078" class="cls-4" d="M-285,497.5H9.667V-112H-285Z" transform="translate(285 112)"/>
    </clipPath>
    <clipPath id="clip-path-5">
      <path id="Path_14082" data-name="Path 14082" class="cls-3" d="M137.187-27.625a17.187,17.187,0,0,0,17.187-17.187A17.187,17.187,0,0,0,137.187-62,17.187,17.187,0,0,0,120-44.813,17.187,17.187,0,0,0,137.187-27.625Z" transform="translate(-120 62)"/>
    </clipPath>
    <clipPath id="clip-path-6">
      <path id="Path_14081" data-name="Path 14081" class="cls-4" d="M-285,495.283H814.984V-112H-285Z" transform="translate(285 112)"/>
    </clipPath>
    <clipPath id="clip-path-7">
      <path id="Path_14085" data-name="Path 14085" class="cls-5" d="M134.549-46.525v3.387a1.075,1.075,0,0,0,.316.764,1.075,1.075,0,0,0,.762.316,1.075,1.075,0,0,0,.762-.316,1.075,1.075,0,0,0,.316-.764v-3.387a4.3,4.3,0,0,0,3.235-4.162A4.314,4.314,0,0,0,135.627-55a4.314,4.314,0,0,0-4.314,4.314,4.3,4.3,0,0,0,3.235,4.162Zm1.078-6.317a2.157,2.157,0,0,1,2.157,2.156,2.157,2.157,0,0,1-2.157,2.157,2.156,2.156,0,0,1-2.157-2.157,2.156,2.156,0,0,1,2.157-2.156Zm8.627,10.784a1.078,1.078,0,0,0-.653-.991h-.007l-5.81-2.49V-43.2l2.654,1.138L135.627-40l-4.811-2.062,2.654-1.138v-2.347l-5.811,2.49h-.006a1.078,1.078,0,0,0-.654.991,1.078,1.078,0,0,0,.654.99h0s0,0,0,0l7.542,3.233h0a1.073,1.073,0,0,0,.425.087,1.072,1.072,0,0,0,.425-.087h0l7.542-3.233s0,0,0,0h0a1.078,1.078,0,0,0,.653-.99Z" transform="translate(-127 55)"/>
    </clipPath>
    <clipPath id="clip-path-8">
      <path id="Path_14084" data-name="Path 14084" class="cls-6" d="M-285,495.283H814.984V-112H-285Z" transform="translate(285 112)"/>
    </clipPath>
    <clipPath id="clip-path-9">
      <path id="Path_14088" data-name="Path 14088" class="cls-3" d="M257.187-27.625a17.187,17.187,0,0,0,17.187-17.187A17.187,17.187,0,0,0,257.187-62,17.187,17.187,0,0,0,240-44.813,17.187,17.187,0,0,0,257.187-27.625Z" transform="translate(-240 62)"/>
    </clipPath>
    <clipPath id="clip-path-11">
      <path id="Path_14091" data-name="Path 14091" class="cls-5" d="M262.1-53H249.157A2.156,2.156,0,0,0,247-50.843v8.627a2.157,2.157,0,0,0,2.157,2.157H262.1a2.158,2.158,0,0,0,2.157-2.157v-8.627A2.157,2.157,0,0,0,262.1-53Zm0,9.706a1.079,1.079,0,0,1-1.078,1.078H250.235a1.079,1.079,0,0,1-1.078-1.078V-46.53H262.1v3.235Zm0-5.392H249.157v-1.078a1.078,1.078,0,0,1,1.078-1.078h10.784a1.078,1.078,0,0,1,1.078,1.078v1.078Zm-10.784,5.392h2.157a1.079,1.079,0,0,0,1.078-1.078,1.078,1.078,0,0,0-1.078-1.078h-2.157a1.078,1.078,0,0,0-1.078,1.078,1.079,1.079,0,0,0,1.078,1.078Z" transform="translate(-247 53)"/>
    </clipPath>
    <clipPath id="clip-path-13">
      <path id="Path_14094" data-name="Path 14094" class="cls-1" d="M377.187-27.625a17.187,17.187,0,0,0,17.187-17.187A17.187,17.187,0,0,0,377.187-62,17.187,17.187,0,0,0,360-44.813,17.187,17.187,0,0,0,377.187-27.625Z" transform="translate(-360 62)"/>
    </clipPath>
    <clipPath id="clip-path-14">
      <path id="Path_14093" data-name="Path 14093" class="cls-2" d="M-285,495.283H814.984V-112H-285Z" transform="translate(285 112)"/>
    </clipPath>
    <clipPath id="clip-path-15">
      <path id="Path_14097" data-name="Path 14097" class="cls-7" d="M378.863-49.608a1.077,1.077,0,0,0-.763.316l-3.55,3.551-1.394-1.394a1.079,1.079,0,0,0-.762-.315,1.077,1.077,0,0,0-1.078,1.078,1.07,1.07,0,0,0,.315.761l2.157,2.158a1.075,1.075,0,0,0,.763.315,1.074,1.074,0,0,0,.762-.315l4.314-4.314a1.076,1.076,0,0,0,.316-.764,1.079,1.079,0,0,0-1.078-1.078Zm2.864-2.865a8.627,8.627,0,0,0-12.2,0,8.628,8.628,0,0,0,0,12.2,8.627,8.627,0,0,0,12.2,0,8.628,8.628,0,0,0,0-12.2ZM380.2-41.8a6.47,6.47,0,0,1-9.15,0,6.47,6.47,0,0,1,0-9.15,6.47,6.47,0,0,1,9.15,0,6.47,6.47,0,0,1,0,9.15Z" transform="translate(-367 55)"/>
    </clipPath>
    <clipPath id="clip-path-16">
      <path id="Path_14096" data-name="Path 14096" class="cls-8" d="M-285,495.283H814.984V-112H-285Z" transform="translate(285 112)"/>
    </clipPath>
    <clipPath id="clip-path-17">
      <path id="Path_14026" data-name="Path 14026" class="cls-3" d="M225.2-4.981h-1.011s-1.917-.166-2.65.512a1.643,1.643,0,0,0,0,2.453l3.792,3.51A1.956,1.956,0,0,0,226.662,2a1.958,1.958,0,0,0,1.326-.508l3.66-3.5a1.643,1.643,0,0,0,0-2.453c-.731-.677-2.65-.517-2.65-.517l-1,0Z" transform="translate(0 33)"/>
    </clipPath>
    <clipPath id="clip-path-18">
      <path id="Path_14025" data-name="Path 14025" class="cls-4" d="M-350,703.53H992.42V-204H-350Z" transform="translate(350 204)"/>
    </clipPath>
    <filter id="Knob" x="687.768" y="560.74" width="19.258" height="19.258" filterUnits="userSpaceOnUse">
      <feOffset input="SourceAlpha"/>
      <feGaussianBlur stdDeviation="0.5" result="blur"/>
      <feFlood flood-opacity="0.122"/>
      <feComposite operator="in" in2="blur"/>
      <feComposite in="SourceGraphic"/>
    </filter>
    <filter id="Knob-2" x="687.768" y="561.74" width="19.258" height="19.258" filterUnits="userSpaceOnUse">
      <feOffset dy="1" input="SourceAlpha"/>
      <feGaussianBlur stdDeviation="0.5" result="blur-2"/>
      <feFlood flood-opacity="0.239"/>
      <feComposite operator="in" in2="blur-2"/>
      <feComposite in="SourceGraphic"/>
    </filter>
    <clipPath id="clip-path-23">
      <path id="Path_14106" data-name="Path 14106" class="cls-11" d="M0-61H605.542v1.23H0Z" transform="translate(0 61)"/>
    </clipPath>
    <clipPath id="clip-path-24">
      <path id="Path_14105" data-name="Path 14105" class="cls-12" d="M-50,190.9H625.954V-461H-50Z" transform="translate(50 461)"/>
    </clipPath>
    <clipPath id="clip-Checkout_-_Pago_-_Sin_registro">
      <rect width="1280" height="800"/>
    </clipPath>
  </defs>
  <g id="Checkout_-_Pago_-_Sin_registro" data-name="Checkout - Pago - Sin registro" class="cls-13">
    <rect class="cls-6" width="1280" height="800"/>
    <g id="Group_11988" data-name="Group 11988" transform="translate(-2382 2211)">
      <rect id="Rectangle_1804" data-name="Rectangle 1804" class="cls-6" width="1280" height="80" transform="translate(2382 -2211)"/>
      <g id="Group_8559" data-name="Group 8559" transform="translate(2414 -2186)">
        <path id="Path_1235" data-name="Path 1235" class="cls-14" d="M10.9,36.427l8.271,18.592h2.613L11.58,32.4l-.714-1.5-.714,1.5L0,55.019H2.613Z" transform="translate(0 -25.091)"/>
        <path id="Path_1236" data-name="Path 1236" class="cls-14" d="M32.2,5.207l8.948-3.5L40.4,0,33.234,2.839Z" transform="translate(-26.147)"/>
      </g>
      <g id="Group_11564" data-name="Group 11564" transform="translate(2382 -2287)">
        <text id="Buscar" class="cls-15" transform="translate(1037.813 119)"><tspan x="0" y="0">Buscar</tspan></text>
        <line id="Line_3457" data-name="Line 3457" class="cls-16" x2="199" transform="translate(1037.5 126.5)"/>
        <path id="Path_1358" data-name="Path 1358" class="cls-17" d="M883.085-1650.7l3.575,3.576-.782.782-3.575-3.576a5.667,5.667,0,0,1-3.613,1.295,5.689,5.689,0,0,1-5.689-5.689,5.689,5.689,0,0,1,5.689-5.689,5.689,5.689,0,0,1,5.689,5.689A5.666,5.666,0,0,1,883.085-1650.7Zm-4.4-8.164a4.551,4.551,0,0,0-4.552,4.552,4.552,4.552,0,0,0,4.552,4.551,4.552,4.552,0,0,0,4.552-4.551A4.551,4.551,0,0,0,878.689-1658.863Z" transform="translate(344.37 1766)"/>
      </g>
      <g id="Group_11566" data-name="Group 11566" transform="translate(-2579 8971)">
        <text id="HOME" class="cls-18" transform="translate(5365 -11133)"><tspan x="0" y="0">HOME</tspan></text>
        <text id="SALE_" data-name="SALE!" class="cls-18" transform="translate(5544.813 -11133)"><tspan x="0" y="0">SALE!</tspan></text>
        <text id="ARIDANDO" class="cls-18" transform="translate(5626.813 -11133)"><tspan x="0" y="0">ARIDANDO</tspan></text>
        <text id="ENCUÉNTRANOS" class="cls-18" transform="translate(5738.813 -11133)"><tspan x="0" y="0">ENCUÉNTRANOS</tspan></text>
        <g id="Group_8538" data-name="Group 8538" transform="translate(42)">
          <text id="SHOP" class="cls-18" transform="translate(5400.813 -11133)"><tspan x="0" y="0">SHOP</tspan></text>
          <g id="ic_arrow_drop_down" transform="translate(5262.3 -11225)">
            <rect id="rectangle" class="cls-19" width="20" height="20" transform="translate(172 78)"/>
            <path id="path" class="cls-20" d="M7,10l4.167,4.167L15.333,10Z" transform="translate(170.833 76.333)"/>
          </g>
        </g>
      </g>
      <line id="Line_3622" data-name="Line 3622" class="cls-21" x2="1280" transform="translate(2382.5 -2131.5)"/>
      <g id="Group_11572" data-name="Group 11572" transform="translate(1881 -3843)">
        <text id="CREAR_OUTFIT" data-name="CREAR OUTFIT" class="cls-22" transform="translate(621.606 1680)"><tspan x="0" y="0">CREAR OUTFIT</tspan></text>
        <g id="Group_8848" data-name="Group 8848" transform="translate(577.976 1672)">
          <path id="Path_588" data-name="Path 588" class="cls-23" d="M0,.645,5.657,0,5.012,5.657" transform="translate(31.534 0) rotate(45)"/>
          <line id="Line_3242" data-name="Line 3242" class="cls-23" x2="15.451" transform="translate(20.025 4)"/>
        </g>
      </g>
    </g>
    <g id="Rectangle_9514" data-name="Rectangle 9514" class="cls-24" transform="translate(290 196)">
      <rect class="cls-67" width="701" height="559.382" rx="6"/>
      <rect class="cls-19" x="0.5" y="0.5" width="700" height="558.382" rx="5.5"/>
    </g>
    <text id="Mis_compras_Checkout" data-name="Mis compras  /  Checkout" class="cls-25" transform="translate(41 133)"><tspan x="0" y="0" xml:space="preserve">Mis compras  /  </tspan><tspan class="cls-26" y="0">Checkout</tspan></text>
    <g id="Group_13349" data-name="Group 13349" transform="translate(452 9)">
      <g id="Group_13350" data-name="Group 13350" class="cls-27" transform="translate(69 114)">
        <g id="Group_13349-2" data-name="Group 13349" class="cls-28" transform="translate(-183.333 -69)">
          <path id="Path_14074" data-name="Path 14074" class="cls-2" d="M10-34H236.111V-57H10Z" transform="translate(170.278 120.25)"/>
        </g>
      </g>
      <g id="Group_13352" data-name="Group 13352" class="cls-29" transform="translate(69 114)">
        <g id="Group_13351" data-name="Group 13351" class="cls-30" transform="translate(-92.083 -69)">
          <path id="Path_14077" data-name="Path 14077" class="cls-4" d="M10-34H123.569V-57H10Z" transform="translate(80.549 120.25)"/>
        </g>
      </g>
      <text id="ENTREGA" class="cls-31" transform="translate(45 159)"><tspan x="0" y="0">ENTREGA</tspan></text>
      <g id="Group_13354" data-name="Group 13354" class="cls-32" transform="translate(52 103)">
        <g id="Group_13353" data-name="Group 13353" class="cls-33" transform="translate(-464.056 -57.291)">
          <path id="Path_14080" data-name="Path 14080" class="cls-4" d="M115-21.167h45.833V-67H115Z" transform="translate(343.327 118.562)"/>
        </g>
      </g>
      <g id="Group_13356" data-name="Group 13356" class="cls-34" transform="translate(61 112)">
        <g id="Group_13355" data-name="Group 13355" class="cls-35" transform="translate(-472.076 -65.312)">
          <path id="Path_14083" data-name="Path 14083" class="cls-6" d="M122-31.287h28.713V-60H122Z" transform="translate(344.347 119.582)"/>
        </g>
      </g>
      <g id="Group_13358" data-name="Group 13358" class="cls-36" transform="translate(162 103)">
        <g id="Group_13357" data-name="Group 13357" class="cls-33" transform="translate(-601.554 -57.291)">
          <path id="Path_14086" data-name="Path 14086" class="cls-4" d="M235-21.167h45.833V-67H235Z" transform="translate(360.825 118.562)"/>
        </g>
      </g>
      <g id="Group_13360" data-name="Group 13360" class="cls-37" transform="translate(170 114)">
        <g id="Group_13359" data-name="Group 13359" class="cls-35" transform="translate(-609.574 -67.603)">
          <path id="Path_14089" data-name="Path 14089" class="cls-6" d="M242-33.6h28.713V-58H242Z" transform="translate(361.845 119.874)"/>
        </g>
      </g>
      <g id="Group_13362" data-name="Group 13362" class="cls-38" transform="translate(272 103)">
        <g id="Group_13361" data-name="Group 13361" class="cls-39" transform="translate(-739.052 -57.291)">
          <path id="Path_14092" data-name="Path 14092" class="cls-2" d="M355-21.167h45.833V-67H355Z" transform="translate(378.323 118.562)"/>
        </g>
      </g>
      <g id="Group_13364" data-name="Group 13364" class="cls-40" transform="translate(280.5 112)">
        <g id="Group_13363" data-name="Group 13363" class="cls-41" transform="translate(-747.072 -65.312)">
          <path id="Path_14095" data-name="Path 14095" class="cls-8" d="M362-31.287h28.712V-60H362Z" transform="translate(379.343 119.582)"/>
        </g>
      </g>
      <text id="PAGO" class="cls-31" transform="translate(165 159)"><tspan x="0" y="0">PAGO</tspan></text>
      <text id="CONFIRMACIÓN" class="cls-42" transform="translate(248 159)"><tspan x="0" y="0">CONFIRMACIÓN</tspan></text>
    </g>
    <g id="Group_13391" data-name="Group 13391" transform="translate(214)">
      <g id="Group_13326" data-name="Group 13326" transform="translate(61 20)">
        <g id="Rectangle_9522" data-name="Rectangle 9522" class="cls-43" transform="translate(375 281)">
          <rect class="cls-67" width="280" height="43" rx="6"/>
          <rect class="cls-19" x="0.75" y="0.75" width="278.5" height="41.5" rx="5.25"/>
        </g>
        <text id="Pago_contra_entrega:_Efectivo" data-name="Pago contra entrega: Efectivo" class="cls-44" transform="translate(515 307)"><tspan x="-91.767" y="0">Pago contra entrega: Efectivo</tspan></text>
        <g id="Group_13325" data-name="Group 13325" transform="translate(0 8)">
          <rect id="Rectangle_9523" data-name="Rectangle 9523" class="cls-4" width="280" height="43" rx="6" transform="translate(66 273)"/>
          <text id="Tarjeta_de_crédito_o_debito" data-name="Tarjeta de crédito o debito" class="cls-45" transform="translate(206 299)"><tspan x="-81.933" y="0">Tarjeta de crédito o debito</tspan></text>
          <g id="Group_13295" data-name="Group 13295" class="cls-46" transform="translate(-20.994 286)">
            <g id="Group_13294" data-name="Group 13294" class="cls-47" transform="translate(-577.458 -250.272)">
              <path id="Path_14024" data-name="Path 14024" class="cls-4" d="M215.995,10.984V-10H241.18V10.984Z" transform="translate(575.466 281.28)"/>
            </g>
          </g>
        </g>
      </g>
      <text id="_2._MÉTODO_DE_PAGO" data-name="2. MÉTODO DE PAGO" class="cls-48" transform="translate(170 249)"><tspan x="0" y="0">2. MÉTODO DE PAGO</tspan></text>
      <text id="Aceptamos_tarjetas_de_Crédito_Visa_MasterCard_y_American_Express_y_Débito_Visa_." data-name="Aceptamos tarjetas de Crédito (Visa, MasterCard y American Express) y Débito (Visa)." class="cls-49" transform="translate(149.088 414)"><tspan x="0" y="0">Aceptamos tarjetas de Crédito (Visa, MasterCard y American Express) y Débito (Visa).</tspan></text>
      <text id="Se_realizará_un_cobro_por_primer_pedido_luego_se_realizará_el_reembolso_S_5.00" data-name="Se realizará un cobro por primer pedido, luego se realizará el reembolso S/ 5.00" class="cls-50" transform="translate(160 631)"><tspan x="0" y="0">Se realizará un cobro por primer pedido, luego se realizará el reembolso S/ 5.00</tspan></text>
      <g id="Group_13375" data-name="Group 13375" transform="translate(-426 144)">
        <g id="Rectangle_2118" data-name="Rectangle 2118" class="cls-43" transform="translate(586 323)">
          <rect class="cls-67" width="260.793" height="38" rx="4"/>
          <rect class="cls-19" x="0.75" y="0.75" width="259.293" height="36.5" rx="3.25"/>
        </g>
        <g id="Rectangle_2119" data-name="Rectangle 2119" class="cls-24" transform="translate(586 407)">
          <rect class="cls-67" width="128" height="38" rx="4"/>
          <rect class="cls-19" x="0.5" y="0.5" width="127" height="37" rx="3.5"/>
        </g>
        <g id="Rectangle_2120" data-name="Rectangle 2120" class="cls-24" transform="translate(901.207 323)">
          <rect class="cls-67" width="127.318" height="38" rx="4"/>
          <rect class="cls-19" x="0.5" y="0.5" width="126.318" height="37" rx="3.5"/>
        </g>
        <g id="Rectangle_2121" data-name="Rectangle 2121" class="cls-24" transform="translate(742.682 407)">
          <rect class="cls-67" width="128" height="38" rx="4"/>
          <rect class="cls-19" x="0.5" y="0.5" width="127" height="37" rx="3.5"/>
        </g>
        <text id="Tarjeta_de_Crédito_o_Débito" data-name="Tarjeta de Crédito o Débito" class="cls-51" transform="translate(586 310)"><tspan x="0" y="0">Tarjeta de Crédito o Débito</tspan></text>
        <text id="Fecha_de_Expiración" data-name="Fecha de Expiración" class="cls-44" transform="translate(586 394)"><tspan x="0" y="0">Fecha de Expiración</tspan></text>
        <text id="Código_de_Seguridad" data-name="Código de Seguridad" class="cls-44" transform="translate(901 310)"><tspan x="0" y="0">Código de Seguridad</tspan></text>
        <text id="Mes" class="cls-52" transform="translate(599 431)"><tspan x="0" y="0">Mes</tspan></text>
        <text id="_1111_2222_3333_4444" data-name="1111 2222 3333 4444" class="cls-53" transform="translate(599 347)"><tspan x="0" y="0">1111 2222 3333 4444</tspan></text>
        <text id="Mayo" class="cls-52" transform="translate(753 431)"><tspan x="0" y="0">Mayo</tspan></text>
        <g id="ic_arrow_drop_down-2" data-name="ic_arrow_drop_down" transform="translate(684.287 414)">
          <rect id="rectangle-2" data-name="rectangle" class="cls-19" width="24.952" height="24.952" transform="translate(0 0)"/>
          <path id="path-2" data-name="path" class="cls-9" d="M7,10l5.2,5.2L17.4,10Z" transform="translate(0.278 0.397)"/>
        </g>
        <g id="ic_arrow_drop_down-3" data-name="ic_arrow_drop_down" transform="translate(839.287 414)">
          <rect id="rectangle-3" data-name="rectangle" class="cls-19" width="24.952" height="24.952" transform="translate(0 0)"/>
          <path id="path-3" data-name="path" class="cls-9" d="M7,10l5.2,5.2L17.4,10Z" transform="translate(0.278 0.397)"/>
        </g>
        <line id="Line_3592" data-name="Line 3592" class="cls-54" y2="20.274" transform="translate(679.543 415.5)"/>
        <line id="Line_3593" data-name="Line 3593" class="cls-54" y2="20.274" transform="translate(834.543 415.5)"/>
        <g id="Ellipse_56" data-name="Ellipse 56" class="cls-54" transform="translate(1036 333.159)">
          <circle class="cls-67" cx="9.341" cy="9.341" r="9.341"/>
          <circle class="cls-19" cx="9.341" cy="9.341" r="8.841"/>
        </g>
        <text id="_" data-name="?" class="cls-55" transform="translate(1041.749 347.033)"><tspan x="0" y="0">?</tspan></text>
        <g id="lock_close" data-name="lock close" transform="translate(858.09 332.875)">
          <g id="icons" transform="translate(0.025 0.125)">
            <g id="lock-close" transform="translate(0 0)">
              <g id="Group" transform="translate(0)">
                <path id="Shape" class="cls-56" d="M12.107,5.861H10.7v-1.1a4.4,4.4,0,1,0-8.789,0v1.1H.514a.489.489,0,0,0-.489.486V17.914a.489.489,0,0,0,.489.486H12.1a.489.489,0,0,0,.489-.486V6.347A.483.483,0,0,0,12.107,5.861Zm-9.214-1.1A3.471,3.471,0,0,1,6.31,1.1,3.471,3.471,0,0,1,9.727,4.762v1.1H2.893Zm8.725,12.666H1V6.832H11.618Z" transform="translate(-0.025 -0.125)"/>
                <path id="Shape-2" data-name="Shape" class="cls-56" d="M33.85,67.191v1.763a.489.489,0,0,0,.977,0V67.191a.949.949,0,0,0,.489-.82.977.977,0,0,0-1.955,0A.957.957,0,0,0,33.85,67.191Z" transform="translate(-28.053 -55.007)"/>
              </g>
            </g>
          </g>
        </g>
        <line id="Line_3594" data-name="Line 3594" class="cls-57" y1="17" transform="translate(599.5 334.5)"/>
        <text id="ccv" class="cls-52" transform="translate(914 348)"><tspan x="0" y="0">ccv</tspan></text>
      </g>
      <g id="Group_13315" data-name="Group 13315" transform="translate(431 -48)">
        <rect id="Rectangle_9447" data-name="Rectangle 9447" class="cls-4" width="210" height="46" rx="6" transform="translate(75 721)"/>
        <text id="SIGUIENTE" class="cls-58" transform="translate(180 748)"><tspan x="-32.616" y="0">SIGUIENTE</tspan></text>
      </g>
      <g id="Group_13314" data-name="Group 13314" transform="translate(-453.944 -979)">
        <text id="Volver_a_Mis_compras" data-name="Volver a Mis compras" class="cls-59" transform="translate(621.606 1680)"><tspan x="0" y="0">Volver a Mis compras</tspan></text>
        <g id="Path_13771" data-name="Path 13771" class="cls-60" transform="translate(1055.842 1661.205) rotate(180)">
          <path class="cls-67" d="M 453.6283874511719 -9.194724082946777 C 452.8794250488281 -9.194724082946777 452.2701110839844 -9.803223609924316 452.2701110839844 -10.55116367340088 C 452.2701110839844 -10.91325378417969 452.4112854003906 -11.25379371643066 452.6676330566406 -11.5100736618042 L 453.1823120117188 -12.02475357055664 L 453.8651123046875 -12.70759391784668 L 452.8994445800781 -12.70759391784668 L 443.0897521972656 -12.70759391784668 C 442.3417663574219 -12.70759391784668 441.7332458496094 -13.31608390808105 441.7332458496094 -14.06402397155762 C 441.7332458496094 -14.81196403503418 442.3417663574219 -15.42046356201172 443.0897521972656 -15.42046356201172 L 452.8994445800781 -15.42046356201172 L 453.8651123046875 -15.42046356201172 L 453.1823120117188 -16.10330390930176 L 452.6676635742188 -16.61793327331543 C 452.4112854003906 -16.87425422668457 452.2701110839844 -17.21481323242188 452.2701110839844 -17.57689476013184 C 452.2701110839844 -18.3248348236084 452.8794250488281 -18.93332481384277 453.6283874511719 -18.93332481384277 C 453.9904479980469 -18.93332481384277 454.3309936523438 -18.79217338562012 454.5872497558594 -18.53588485717773 L 458.1001586914063 -15.02299404144287 C 458.3562316894531 -14.76545429229736 458.4977111816406 -14.42460441589355 458.4977111816406 -14.06402397155762 C 458.4977111816406 -13.70344352722168 458.3562316894531 -13.36260414123535 458.099365234375 -13.10428428649902 L 454.5872802734375 -9.592204093933105 C 454.3309936523438 -9.335884094238281 453.9904479980469 -9.194724082946777 453.6283874511719 -9.194724082946777 Z"/>
          <path class="cls-68" d="M 453.6283874511719 -9.594723701477051 C 453.8836059570313 -9.594723701477051 454.1236572265625 -9.69426441192627 454.304443359375 -9.875054359436035 L 457.8157348632813 -13.38633441925049 C 457.99755859375 -13.56919384002686 458.0977172851563 -13.80986404418945 458.0977172851563 -14.06402397155762 C 458.0977172851563 -14.31818389892578 457.99755859375 -14.55887413024902 457.8173217773438 -14.74014377593994 L 454.3044128417969 -18.25305366516113 C 454.1236877441406 -18.43378448486328 453.8836059570313 -18.53332328796387 453.6283874511719 -18.53332328796387 C 453.1000061035156 -18.53332328796387 452.6701049804688 -18.10427474975586 452.6701049804688 -17.57689476013184 C 452.6701049804688 -17.32167434692383 452.7696838378906 -17.08157348632813 452.9505310058594 -16.9007740020752 L 453.4651489257813 -16.38614463806152 L 454.8307800292969 -15.02046394348145 L 452.8994445800781 -15.02046394348145 L 443.0897521972656 -15.02046394348145 C 442.5623168945313 -15.02046394348145 442.1332397460938 -14.59140396118164 442.1332397460938 -14.06402397155762 C 442.1332397460938 -13.53664398193359 442.5623168945313 -13.10759353637695 443.0897521972656 -13.10759353637695 L 452.8994445800781 -13.10759353637695 L 454.8307800292969 -13.10759353637695 L 453.4651489257813 -11.74192428588867 L 452.950439453125 -11.22719383239746 C 452.7696533203125 -11.04647350311279 452.6701049804688 -10.80638408660889 452.6701049804688 -10.55116367340088 C 452.6701049804688 -10.02378368377686 453.1000061035156 -9.594723701477051 453.6283874511719 -9.594723701477051 M 453.6283874511719 -8.794723510742188 C 452.656982421875 -8.794723510742188 451.8701171875 -9.581613540649414 451.8701171875 -10.55116367340088 C 451.8701171875 -11.03594398498535 452.0668334960938 -11.47504425048828 452.3848266601563 -11.79295444488525 L 452.8994445800781 -12.30759429931641 L 443.0897521972656 -12.30759429931641 C 442.1183776855469 -12.30759429931641 441.333251953125 -13.09447383880615 441.333251953125 -14.06402397155762 C 441.333251953125 -15.03357410430908 442.1183776855469 -15.82046413421631 443.0897521972656 -15.82046413421631 L 452.8994445800781 -15.82046413421631 L 452.3848266601563 -16.3350944519043 C 452.0668334960938 -16.65301322937012 451.8701171875 -17.09212303161621 451.8701171875 -17.57689476013184 C 451.8701171875 -18.54645347595215 452.656982421875 -19.33332443237305 453.6283874511719 -19.33332443237305 C 454.1131591796875 -19.33332443237305 454.55224609375 -19.1366138458252 454.8701171875 -18.81870460510254 L 458.3829956054688 -15.30583381652832 C 458.6991271972656 -14.98791408538818 458.897705078125 -14.54880428314209 458.897705078125 -14.06402397155762 C 458.897705078125 -13.57924365997314 458.6991271972656 -13.14014434814453 458.3829956054688 -12.82223415374756 L 454.8701171875 -9.309364318847656 C 454.55224609375 -8.991454124450684 454.1131591796875 -8.794723510742188 453.6283874511719 -8.794723510742188 Z"/>
        </g>
      </g>
      <g id="Group_13374" data-name="Group 13374" transform="translate(97 -837)">
        <g id="Group_12587" data-name="Group 12587" class="cls-36" transform="translate(30 1064)">
          <g id="Group_12586" data-name="Group 12586" class="cls-33" transform="translate(-601.554 -57.291)">
            <path id="Path_13591" data-name="Path 13591" class="cls-4" d="M235-21.167h45.833V-67H235Z" transform="translate(360.825 118.562)"/>
          </g>
        </g>
        <g id="Group_12589" data-name="Group 12589" class="cls-37" transform="translate(38 1075)">
          <g id="Group_12588" data-name="Group 12588" class="cls-35" transform="translate(-609.574 -67.603)">
            <path id="Path_13594" data-name="Path 13594" class="cls-6" d="M242-33.6h28.713V-58H242Z" transform="translate(361.845 119.874)"/>
          </g>
        </g>
      </g>
      <g id="Group_13379" data-name="Group 13379" transform="translate(398 -99)">
        <text id="Guardar_datos_de_tarjeta" data-name="Guardar datos de tarjeta" class="cls-61" transform="translate(116.125 671.49)"><tspan x="0" y="0">Guardar datos de tarjeta</tspan></text>
        <g id="Switches_Tumbler_Off" data-name="Switches Tumbler Off" transform="translate(77.518 659.914)">
          <rect id="Bounds" class="cls-19" width="31.517" height="18.91" transform="translate(0 0)"/>
          <path id="Track" class="cls-62" d="M24.274,16.031H8.515A5.515,5.515,0,0,1,8.515,5H24.274a5.515,5.515,0,0,1,0,11.031Z" transform="translate(-0.636 -1.06)"/>
          <g id="Knob-3" data-name="Knob" transform="translate(0 1.576)">
            <g class="cls-70" transform="matrix(1, 0, 0, 1, -689.52, -562.49)">
              <circle id="Knob-4" data-name="Knob" class="cls-63" cx="7.879" cy="7.879" r="7.879" transform="translate(689.52 562.49)"/>
            </g>
            <g class="cls-69" transform="matrix(1, 0, 0, 1, -689.52, -562.49)">
              <circle id="Knob-5" data-name="Knob" class="cls-64" cx="7.879" cy="7.879" r="7.879" transform="translate(689.52 562.49)"/>
            </g>
          </g>
        </g>
      </g>
      <g id="Group_13378" data-name="Group 13378" class="cls-65" transform="translate(119 368.666)">
        <g id="Group_13377" data-name="Group 13377" class="cls-66" transform="translate(-35.206 -492.001)">
          <path id="Path_14104" data-name="Path 14104" class="cls-12" d="M-5-52.47H607.583V-66H-5Z" transform="translate(36.685 551.851)"/>
        </g>
      </g>
    </g>
  </g>
</svg>
