<svg xmlns="http://www.w3.org/2000/svg" xmlns:xlink="http://www.w3.org/1999/xlink" viewBox="0 0 1280 3517">
  <defs>
    <style>
      .cls-1, .cls-14, .cls-4, .cls-42, .cls-49, .cls-51, .cls-6 {
        fill: none;
      }

      .cls-1, .cls-4, .cls-5, .cls-8 {
        stroke: #393939;
      }

      .cls-1 {
        stroke-width: 1.7px;
      }

      .cls-2 {
        clip-path: url(#clip-COLECTIONS_-_SS18_Backstage_);
      }

      .cls-11, .cls-3, .cls-41, .cls-5, .cls-7, .cls-8 {
        fill: #393939;
      }

      .cls-3 {
        font-size: 13px;
        font-family: Raleway-Medium, Raleway;
        font-weight: 500;
      }

      .cls-4 {
        stroke-width: 1.5px;
      }

      .cls-5 {
        stroke-width: 0.5px;
      }

      .cls-45, .cls-5 {
        fill-rule: evenodd;
      }

      .cls-6 {
        stroke: #ece9e6;
      }

      .cls-11, .cls-7 {
        font-size: 12px;
      }

      .cls-7 {
        font-family: Raleway-SemiBold, Raleway;
        font-weight: 600;
      }

      .cls-8 {
        stroke-width: 0.2px;
      }

      .cls-9 {
        clip-path: url(#clip-path);
      }

      .cls-10 {
        fill: #2b2e34;
      }

      .cls-11, .cls-13, .cls-48 {
        font-family: Gotham-Bold, Gotham;
      }

      .cls-11, .cls-13, .cls-41, .cls-44, .cls-48 {
        font-weight: 700;
      }

      .cls-12 {
        font-size: 30px;
        font-family: TimesNewRomanPS-ItalicMT, Times New Roman;
        font-style: italic;
      }

      .cls-13 {
        fill: #d6d6d6;
        font-size: 50px;
      }

      .cls-14, .cls-42 {
        stroke: #000;
      }

      .cls-15 {
        fill: url(#pattern);
      }

      .cls-16 {
        fill: url(#pattern-2);
      }

      .cls-17 {
        fill: url(#pattern-3);
      }

      .cls-18 {
        fill: url(#pattern-4);
      }

      .cls-19 {
        fill: url(#pattern-5);
      }

      .cls-20 {
        fill: url(#pattern-6);
      }

      .cls-21 {
        fill: url(#pattern-7);
      }

      .cls-22 {
        fill: url(#pattern-8);
      }

      .cls-23 {
        fill: url(#pattern-9);
      }

      .cls-24 {
        fill: url(#pattern-10);
      }

      .cls-25 {
        fill: url(#pattern-11);
      }

      .cls-26 {
        fill: url(#pattern-12);
      }

      .cls-27 {
        fill: url(#pattern-13);
      }

      .cls-28 {
        fill: url(#pattern-14);
      }

      .cls-29 {
        fill: url(#pattern-15);
      }

      .cls-30 {
        fill: url(#pattern-16);
      }

      .cls-31 {
        fill: url(#pattern-17);
      }

      .cls-32 {
        fill: url(#pattern-18);
      }

      .cls-33 {
        fill: url(#pattern-19);
      }

      .cls-34 {
        fill: url(#pattern-20);
      }

      .cls-35 {
        fill: url(#pattern-21);
      }

      .cls-36 {
        fill: url(#pattern-22);
      }

      .cls-37 {
        fill: url(#pattern-23);
      }

      .cls-38 {
        fill: url(#pattern-24);
      }

      .cls-39 {
        fill: url(#pattern-25);
      }

      .cls-40 {
        fill: url(#pattern-26);
      }

      .cls-41, .cls-48 {
        font-size: 14px;
      }

      .cls-41, .cls-44 {
        font-family: Raleway-Bold, Raleway;
      }

      .cls-42 {
        stroke-width: 2px;
      }

      .cls-43 {
        fill: #686260;
      }

      .cls-44, .cls-45, .cls-46, .cls-47, .cls-48 {
        fill: #fff;
      }

      .cls-44 {
        font-size: 16px;
      }

      .cls-47 {
        font-size: 11px;
        font-family: SegoeUI, Segoe UI;
        opacity: 0.5;
      }

      .cls-48 {
        opacity: 0.8;
      }

      .cls-49 {
        stroke: #dfdede;
      }

      .cls-50 {
        stroke: none;
      }
    </style>
    <clipPath id="clip-path">
      <rect id="Rectangle_16" data-name="Rectangle 16" class="cls-1" width="24" height="9.644"/>
    </clipPath>
    <pattern id="pattern" preserveAspectRatio="xMidYMid slice" width="100%" height="100%" viewBox="0 0 417 640">
      <image width="417" height="640" xlink:href="../BACKSTAGE/1-2c444c.jpeg"/>
    </pattern>
    <pattern id="pattern-2" preserveAspectRatio="xMidYMid slice" width="100%" height="100%" viewBox="0 0 416 640">
      <image width="416" height="640" xlink:href="../BACKSTAGE/5-337c30.jpeg"/>
    </pattern>
    <pattern id="pattern-3" preserveAspectRatio="xMidYMid slice" width="100%" height="100%" viewBox="0 0 470 640">
      <image width="470" height="640" xlink:href="../BACKSTAGE/9-87f08e.jpeg"/>
    </pattern>
    <pattern id="pattern-4" preserveAspectRatio="xMidYMid slice" width="100%" height="100%" viewBox="0 0 480 583">
      <image width="480" height="583" xlink:href="../BACKSTAGE/13-e3d188.jpeg"/>
    </pattern>
    <pattern id="pattern-5" preserveAspectRatio="xMidYMid slice" width="100%" height="100%" viewBox="0 0 410 640">
      <image width="410" height="640" xlink:href="../BACKSTAGE/17-314ecf.jpeg"/>
    </pattern>
    <pattern id="pattern-6" preserveAspectRatio="xMidYMid slice" width="100%" height="100%" viewBox="0 0 454 640">
      <image width="454" height="640" xlink:href="../BACKSTAGE/look-2-142-c932e0.jpeg"/>
    </pattern>
    <pattern id="pattern-7" preserveAspectRatio="xMidYMid slice" width="100%" height="100%" viewBox="0 0 447 640">
      <image width="447" height="640" xlink:href="../BACKSTAGE/23-813bed.jpeg"/>
    </pattern>
    <pattern id="pattern-8" preserveAspectRatio="xMidYMid slice" width="100%" height="100%" viewBox="0 0 480 630">
      <image width="480" height="630" xlink:href="../BACKSTAGE/2-f311d5.jpeg"/>
    </pattern>
    <pattern id="pattern-9" preserveAspectRatio="xMidYMid slice" width="100%" height="100%" viewBox="0 0 471 640">
      <image width="471" height="640" xlink:href="../BACKSTAGE/6-44fefc.jpeg"/>
    </pattern>
    <pattern id="pattern-10" preserveAspectRatio="xMidYMid slice" width="100%" height="100%" viewBox="0 0 481 623">
      <image width="481" height="623" xlink:href="../BACKSTAGE/10-9c7b83.jpeg"/>
    </pattern>
    <pattern id="pattern-11" preserveAspectRatio="xMidYMid slice" width="100%" height="100%" viewBox="0 0 480 638">
      <image width="480" height="638" xlink:href="../BACKSTAGE/14-f79a43.jpeg"/>
    </pattern>
    <pattern id="pattern-12" preserveAspectRatio="xMidYMid slice" width="100%" height="100%" viewBox="0 0 442 640">
      <image width="442" height="640" xlink:href="../BACKSTAGE/19-40e777.jpeg"/>
    </pattern>
    <pattern id="pattern-13" preserveAspectRatio="xMidYMid slice" width="100%" height="100%" viewBox="0 0 417 640">
      <image width="417" height="640" xlink:href="../BACKSTAGE/24-945d82.jpeg"/>
    </pattern>
    <pattern id="pattern-14" preserveAspectRatio="xMidYMid slice" width="100%" height="100%" viewBox="0 0 428 640">
      <image width="428" height="640" xlink:href="../BACKSTAGE/3-091cf6.jpeg"/>
    </pattern>
    <pattern id="pattern-15" preserveAspectRatio="xMidYMid slice" width="100%" height="100%" viewBox="0 0 420 640">
      <image width="420" height="640" xlink:href="../BACKSTAGE/7-5667e2.jpeg"/>
    </pattern>
    <pattern id="pattern-16" preserveAspectRatio="xMidYMid slice" width="100%" height="100%" viewBox="0 0 480 626">
      <image width="480" height="626" xlink:href="../BACKSTAGE/11-af056a.jpeg"/>
    </pattern>
    <pattern id="pattern-17" preserveAspectRatio="xMidYMid slice" width="100%" height="100%" viewBox="0 0 481 619">
      <image width="481" height="619" xlink:href="../BACKSTAGE/15-0bf0a4.jpeg"/>
    </pattern>
    <pattern id="pattern-18" preserveAspectRatio="xMidYMid slice" width="100%" height="100%" viewBox="0 0 481 605">
      <image width="481" height="605" xlink:href="../BACKSTAGE/20-4ef29b.jpeg"/>
    </pattern>
    <pattern id="pattern-19" preserveAspectRatio="xMidYMid slice" width="100%" height="100%" viewBox="0 0 417 640">
      <image width="417" height="640" xlink:href="../BACKSTAGE/25-a77e5a.jpeg"/>
    </pattern>
    <pattern id="pattern-20" preserveAspectRatio="xMidYMid slice" width="100%" height="100%" viewBox="0 0 442 640">
      <image width="442" height="640" xlink:href="../BACKSTAGE/4-1d7a5b.jpeg"/>
    </pattern>
    <pattern id="pattern-21" preserveAspectRatio="xMidYMid slice" width="100%" height="100%" viewBox="0 0 394 640">
      <image width="394" height="640" xlink:href="../BACKSTAGE/8-69d8a4.jpeg"/>
    </pattern>
    <pattern id="pattern-22" preserveAspectRatio="xMidYMid slice" width="100%" height="100%" viewBox="0 0 465 640">
      <image width="465" height="640" xlink:href="../BACKSTAGE/12-c6a032.jpeg"/>
    </pattern>
    <pattern id="pattern-23" preserveAspectRatio="xMidYMid slice" width="100%" height="100%" viewBox="0 0 478 640">
      <image width="478" height="640" xlink:href="../BACKSTAGE/16-18fc7b.jpeg"/>
    </pattern>
    <pattern id="pattern-24" preserveAspectRatio="xMidYMid slice" width="100%" height="100%" viewBox="0 0 418 640">
      <image width="418" height="640" xlink:href="../BACKSTAGE/22-5e5028.jpeg"/>
    </pattern>
    <pattern id="pattern-25" preserveAspectRatio="xMidYMid slice" width="100%" height="100%" viewBox="0 0 412 640">
      <image width="412" height="640" xlink:href="../BACKSTAGE/26-bad8ff.jpeg"/>
    </pattern>
    <pattern id="pattern-26" preserveAspectRatio="xMidYMid slice" width="100%" height="100%" viewBox="0 0 431 640">
      <image width="431" height="640" xlink:href="../BACKSTAGE/look-22-1082-dd362f.jpeg"/>
    </pattern>
    <clipPath id="clip-COLECTIONS_-_SS18_Backstage_">
      <rect width="1280" height="3517"/>
    </clipPath>
  </defs>
  <g id="COLECTIONS_-_SS18_Backstage_" data-name="COLECTIONS - SS18 (Backstage)" class="cls-2">
    <rect class="cls-46" width="1280" height="3517"/>
    <g id="Group_13706" data-name="Group 13706" transform="translate(-497 60)">
      <text id="Buscar" class="cls-3" transform="translate(1037.813 119)"><tspan x="0" y="0">Buscar</tspan></text>
      <line id="Line_3457" data-name="Line 3457" class="cls-4" x2="199" transform="translate(1037.5 126.5)"/>
      <path id="Path_1358" data-name="Path 1358" class="cls-5" d="M883.085-1650.7l3.575,3.576-.782.782-3.575-3.576a5.667,5.667,0,0,1-3.613,1.295,5.689,5.689,0,0,1-5.689-5.689,5.689,5.689,0,0,1,5.689-5.689,5.689,5.689,0,0,1,5.689,5.689A5.666,5.666,0,0,1,883.085-1650.7Zm-4.4-8.164a4.551,4.551,0,0,0-4.552,4.552,4.552,4.552,0,0,0,4.552,4.551,4.552,4.552,0,0,0,4.552-4.551A4.551,4.551,0,0,0,878.689-1658.863Z" transform="translate(344.37 1766)"/>
    </g>
    <line id="Line_3735" data-name="Line 3735" class="cls-6" x2="1280" transform="translate(0.5 155.5)"/>
    <text id="Compras" class="cls-7" transform="translate(1184.813 66)"><tspan x="0" y="0">Compras</tspan></text>
    <text id="Mi_Cuenta" data-name="Mi Cuenta" class="cls-7" transform="translate(1091.813 66)"><tspan x="0" y="0">Mi Cuenta</tspan></text>
    <g id="Group_13707" data-name="Group 13707" transform="translate(1163.961 49.219)">
      <path id="Path_1345" data-name="Path 1345" class="cls-8" d="M36.14,22.129v-.88a4.249,4.249,0,1,0-8.5,0v.88H24V36.393a.609.609,0,0,0,.607.607H39.174a.609.609,0,0,0,.607-.607V22.129H36.14Zm-7.284-.85a3.035,3.035,0,0,1,6.07,0v.88h-6.07Zm9.712,14.507H25.214V23.343h2.428v3.976h1.214V23.343h6.07v3.976H36.14V23.343h2.428Z" transform="translate(-24 -17)"/>
    </g>
    <g id="Group_13708" data-name="Group 13708" transform="translate(1065.834 49.219)">
      <g id="Group_2" data-name="Group 2" transform="translate(0)">
        <g id="Mask_Group_1" data-name="Mask Group 1" class="cls-9" transform="translate(0 9.75)">
          <g id="Ellipse_1" data-name="Ellipse 1" class="cls-1" transform="translate(2.25 2.25)">
            <ellipse class="cls-50" cx="9.75" cy="9" rx="9.75" ry="9"/>
            <ellipse class="cls-51" cx="9.75" cy="9" rx="8.9" ry="8.15"/>
          </g>
        </g>
        <g id="Ellipse_2" data-name="Ellipse 2" class="cls-1" transform="translate(6.75)">
          <ellipse class="cls-50" cx="5.625" cy="5.625" rx="5.625" ry="5.625"/>
          <ellipse class="cls-51" cx="5.625" cy="5.625" rx="4.775" ry="4.775"/>
        </g>
      </g>
    </g>
    <g id="Group_14028" data-name="Group 14028" transform="translate(580.158 90.447)">
      <g id="Group_13531" data-name="Group 13531" transform="translate(32.574 -47.112)">
        <path id="Path_14301" data-name="Path 14301" class="cls-10" d="M-7.036,0-22.289,22.353-37.942,0h-1.334l16.447,23.485V38.671h1.093V23.482L-5.714,0Z" transform="translate(39.276)"/>
      </g>
      <g id="Group_13532" data-name="Group 13532" transform="translate(74.186 -47.112)">
        <path id="Path_14302" data-name="Path 14302" class="cls-10" d="M-6.9,0V37.153L-37.325,0h-1.217V38.671h1.093V1.573l30.376,37.1h1.26V0Z" transform="translate(38.542)"/>
      </g>
      <g id="Group_13533" data-name="Group 13533" transform="translate(0 -47.113)">
        <path id="Path_14303" data-name="Path 14303" class="cls-10" d="M-3.622,0-20.215,38.673h1.19L-3.3,2.023l15.289,36.65h1.185L-2.959,0Z" transform="translate(20.215)"/>
      </g>
      <path id="Path_14304" data-name="Path 14304" class="cls-10" d="M145.561-8.441h1.093V-47.112h-1.093Z" transform="translate(-26.077 0)"/>
    </g>
    <g id="Group_14029" data-name="Group 14029" transform="translate(-2209 2294)">
      <text id="COLECTIONS" class="cls-11" transform="translate(2882 -2162)"><tspan x="0" y="0">COLECTIONS</tspan></text>
      <text id="OUR_UNIVERSE" data-name="OUR UNIVERSE" class="cls-11" transform="translate(2667 -2162)"><tspan x="0" y="0">OUR UNIVERSE</tspan></text>
      <text id="HOME" class="cls-11" transform="translate(2594 -2162)"><tspan x="0" y="0">HOME</tspan></text>
      <text id="NEWSLETTER" class="cls-11" transform="translate(3018 -2162)"><tspan x="0" y="0">NEWSLETTER</tspan></text>
      <g id="Group_13534" data-name="Group 13534" transform="translate(4)">
        <g id="Group_12953" data-name="Group 12953" transform="translate(-2606.813 8971)">
          <text id="SHOP" class="cls-11" transform="translate(5400.813 -11133)"><tspan x="0" y="0">SHOP</tspan></text>
        </g>
        <path id="Path_14305" data-name="Path 14305" d="M-15030.5-5914.125h8.25l-4.125,6.625Z" transform="translate(17866 3744.125)"/>
      </g>
      <path id="Path_14352" data-name="Path 14352" d="M-15030.5-5914.125h8.25l-4.125,6.625Z" transform="translate(18005 3744.125)"/>
    </g>
    <text id="Backstage" class="cls-12" transform="translate(641 272)"><tspan x="-61.641" y="0">Backstage</tspan></text>
    <text id="SPRING_SUMMER_18" data-name="SPRING SUMMER 18" class="cls-13" transform="translate(640 323)"><tspan x="-252.95" y="0">SPRING SUMMER 18</tspan></text>
    <line id="Line_3771" data-name="Line 3771" class="cls-14" x2="35" transform="translate(931.5 306.5)"/>
    <line id="Line_3772" data-name="Line 3772" class="cls-14" x2="35" transform="translate(313.5 306.5)"/>
    <rect id="_1-2c444c" data-name="1-2c444c" class="cls-15" width="240" height="342" transform="translate(82 375)"/>
    <rect id="_5-337c30" data-name="5-337c30" class="cls-16" width="240" height="342" transform="translate(82 766)"/>
    <rect id="_9-87f08e" data-name="9-87f08e" class="cls-17" width="240" height="342" transform="translate(82 1157)"/>
    <rect id="_13-e3d188" data-name="13-e3d188" class="cls-18" width="240" height="342" transform="translate(82 1548)"/>
    <rect id="_17-314ecf" data-name="17-314ecf" class="cls-19" width="240" height="342" transform="translate(82 1939)"/>
    <rect id="look-2-142-c932e0" class="cls-20" width="240" height="342" transform="translate(82 2721)"/>
    <rect id="_23-813bed" data-name="23-813bed" class="cls-21" width="240" height="342" transform="translate(82 2330)"/>
    <rect id="_2-f311d5" data-name="2-f311d5" class="cls-22" width="240" height="342" transform="translate(374 375)"/>
    <rect id="_6-44fefc" data-name="6-44fefc" class="cls-23" width="240" height="342" transform="translate(374 766)"/>
    <rect id="_10-9c7b83" data-name="10-9c7b83" class="cls-24" width="240" height="342" transform="translate(374 1157)"/>
    <rect id="_14-f79a43" data-name="14-f79a43" class="cls-25" width="240" height="342" transform="translate(374 1548)"/>
    <rect id="_19-40e777" data-name="19-40e777" class="cls-26" width="240" height="342" transform="translate(374 1939)"/>
    <rect id="_24-945d82" data-name="24-945d82" class="cls-27" width="240" height="342" transform="translate(374 2330)"/>
    <rect id="_3-091cf6" data-name="3-091cf6" class="cls-28" width="240" height="342" transform="translate(666 375)"/>
    <rect id="_7-5667e2" data-name="7-5667e2" class="cls-29" width="240" height="342" transform="translate(666 766)"/>
    <rect id="_11-af056a" data-name="11-af056a" class="cls-30" width="240" height="342" transform="translate(666 1157)"/>
    <rect id="_15-0bf0a4" data-name="15-0bf0a4" class="cls-31" width="240" height="342" transform="translate(666 1548)"/>
    <rect id="_20-4ef29b" data-name="20-4ef29b" class="cls-32" width="240" height="342" transform="translate(666 1939)"/>
    <rect id="_25-a77e5a" data-name="25-a77e5a" class="cls-33" width="240" height="342" transform="translate(666 2330)"/>
    <rect id="_4-1d7a5b" data-name="4-1d7a5b" class="cls-34" width="240" height="342" transform="translate(958 375)"/>
    <rect id="_8-69d8a4" data-name="8-69d8a4" class="cls-35" width="240" height="342" transform="translate(958 766)"/>
    <rect id="_12-c6a032" data-name="12-c6a032" class="cls-36" width="240" height="342" transform="translate(958 1157)"/>
    <rect id="_16-18fc7b" data-name="16-18fc7b" class="cls-37" width="240" height="342" transform="translate(958 1548)"/>
    <rect id="_22-5e5028" data-name="22-5e5028" class="cls-38" width="240" height="342" transform="translate(958 1939)"/>
    <rect id="_26-bad8ff" data-name="26-bad8ff" class="cls-39" width="240" height="342" transform="translate(958 2330)"/>
    <rect id="look-22-1082-dd362f" class="cls-40" width="240" height="342" transform="translate(374 2721)"/>
    <g id="Group_14062" data-name="Group 14062" transform="translate(3 1049)">
      <g id="Group_13704" data-name="Group 13704" transform="translate(-33.944 421)">
        <text id="Volver_a_LOOKBOOK" data-name="Volver a LOOKBOOK" class="cls-41" transform="translate(621.606 1680)"><tspan x="0" y="0">Volver a LOOKBOOK</tspan></text>
      </g>
      <g id="Group_13722" data-name="Group 13722" transform="translate(-2250.424 4157.805) rotate(180)">
        <g id="Group_7551" data-name="Group 7551" transform="translate(-2886 2042)">
          <g id="Group_8064" data-name="Group 8064" transform="translate(43.475 9.911)">
            <path id="Path_588" data-name="Path 588" class="cls-42" d="M0,.731,6.41,0,5.68,6.41" transform="translate(55.174 5.702) rotate(45)"/>
            <line id="Line_3242" data-name="Line 3242" class="cls-42" x2="39.533" transform="translate(20.025 10.235)"/>
          </g>
        </g>
      </g>
    </g>
    <rect id="Rectangle_9681" data-name="Rectangle 9681" class="cls-43" width="1280" height="318" transform="translate(0 3202)"/>
    <text id="_ayniuniverse" data-name="@ayniuniverse" class="cls-44" transform="translate(452.534 3411)"><tspan x="0" y="0">@ayniuniverse</tspan></text>
    <g id="Group_14067" data-name="Group 14067" transform="translate(425 3399)">
      <path id="Path_3" data-name="Path 3" class="cls-45" d="M7.844,1.395a24.053,24.053,0,0,1,3.138.087,4.043,4.043,0,0,1,1.482.261,3.061,3.061,0,0,1,1.482,1.482,4.043,4.043,0,0,1,.261,1.482c0,.784.087,1.046.087,3.138a24.052,24.052,0,0,1-.087,3.138,4.043,4.043,0,0,1-.261,1.482,3.061,3.061,0,0,1-1.482,1.482,4.043,4.043,0,0,1-1.482.261c-.784,0-1.046.087-3.138.087a24.052,24.052,0,0,1-3.138-.087,4.043,4.043,0,0,1-1.482-.261,3.061,3.061,0,0,1-1.482-1.482,4.043,4.043,0,0,1-.261-1.482c0-.784-.087-1.046-.087-3.138a24.053,24.053,0,0,1,.087-3.138,4.043,4.043,0,0,1,.261-1.482,3.13,3.13,0,0,1,.61-.872,1.474,1.474,0,0,1,.872-.61,4.043,4.043,0,0,1,1.482-.261,24.053,24.053,0,0,1,3.138-.087M7.844,0A25.754,25.754,0,0,0,4.62.087,5.381,5.381,0,0,0,2.7.436a3.412,3.412,0,0,0-1.395.872A3.412,3.412,0,0,0,.436,2.7,3.971,3.971,0,0,0,.087,4.62,25.754,25.754,0,0,0,0,7.844a25.754,25.754,0,0,0,.087,3.225,5.381,5.381,0,0,0,.349,1.918,3.412,3.412,0,0,0,.872,1.395,3.412,3.412,0,0,0,1.395.872A5.381,5.381,0,0,0,4.62,15.6a25.753,25.753,0,0,0,3.225.087,25.753,25.753,0,0,0,3.225-.087,5.381,5.381,0,0,0,1.918-.349,3.657,3.657,0,0,0,2.266-2.266,5.381,5.381,0,0,0,.349-1.918c0-.872.087-1.133.087-3.225A25.753,25.753,0,0,0,15.6,4.62,5.381,5.381,0,0,0,15.253,2.7a3.412,3.412,0,0,0-.872-1.395A3.412,3.412,0,0,0,12.987.436,5.381,5.381,0,0,0,11.069.087,25.754,25.754,0,0,0,7.844,0m0,3.835A3.945,3.945,0,0,0,3.835,7.844,4.009,4.009,0,1,0,7.844,3.835m0,6.624A2.568,2.568,0,0,1,5.23,7.844,2.568,2.568,0,0,1,7.844,5.23a2.568,2.568,0,0,1,2.615,2.615,2.568,2.568,0,0,1-2.615,2.615M12.028,2.7a.959.959,0,1,0,.959.959.967.967,0,0,0-.959-.959" transform="translate(0 0)"/>
    </g>
    <g id="Group_14063" data-name="Group 14063" transform="translate(-4870.465 172)">
      <text id="_ayniuniverse-2" data-name="@ayniuniverse" class="cls-44" transform="translate(5490 3239)"><tspan x="0" y="0">@ayniuniverse</tspan></text>
    </g>
    <g id="Group_14064" data-name="Group 14064" transform="translate(-4696.465 172)">
      <text id="_ayni-universe" data-name="@ayni-universe" class="cls-44" transform="translate(5490 3239)"><tspan x="0" y="0">@ayni-universe</tspan></text>
    </g>
    <path id="Path_14447" data-name="Path 14447" class="cls-45" d="M84.83,14.251V7.759h2.217l.317-2.534H84.83V3.642c0-.713.238-1.267,1.267-1.267h1.346V.079C87.126.079,86.334,0,85.463,0a3.056,3.056,0,0,0-3.246,3.325v1.9H80V7.759h2.217v6.492Z" transform="translate(520 3398.5)"/>
    <g id="Group_14065" data-name="Group 14065" transform="translate(771 3399)">
      <path id="Path_14307" data-name="Path 14307" class="cls-46" d="M1.571,1h0a1.564,1.564,0,0,0-1.11.457A1.561,1.561,0,0,0,.471,3.681a1.531,1.531,0,0,0,1.085.441H1.59a1.536,1.536,0,0,0,1.064-.441A1.562,1.562,0,0,0,1.571,1"/>
      <path id="Path_14308" data-name="Path 14308" class="cls-46" d="M10.645,154.7H9.069a.579.579,0,0,0-.569.587v6.82a.591.591,0,0,0,.585.582h1.56a.586.586,0,0,0,.585-.571v-6.834a.593.593,0,0,0-.585-.585" transform="translate(-8.306 -150.189)"/>
      <path id="Path_14309" data-name="Path 14309" class="cls-46" d="M175.693,146.2h-.411a2.628,2.628,0,0,0-1.953.854v-.27a.422.422,0,0,0-.391-.391h-1.948a.4.4,0,0,0-.391.365v7.272a.383.383,0,0,0,.391.352h2.145a.383.383,0,0,0,.391-.352v-4.2a1.1,1.1,0,0,1,1.877-.813,1.073,1.073,0,0,1,.265.8v4.18a.422.422,0,0,0,.391.391h1.948a.424.424,0,0,0,.391-.391v-5.027a2.706,2.706,0,0,0-2.7-2.766" transform="translate(-166.703 -141.884)"/>
    </g>
    <text id="_2018_AYNI_UNIVERSE._Todos_los_derechos_reservados." data-name="© 2018, AYNI UNIVERSE. Todos los derechos reservados." class="cls-47" transform="translate(504 3473)"><tspan x="0" y="0">© 2018, AYNI UNIVERSE. Todos los derechos reservados.</tspan></text>
    <g id="Group_14068" data-name="Group 14068" transform="translate(60 -1559)">
      <text id="Shipping_Returns" data-name="Shipping &amp; Returns" class="cls-48" transform="translate(398 4847)"><tspan x="0" y="0">Shipping &amp; Returns</tspan></text>
      <text id="Payment_Methods" data-name="Payment Methods" class="cls-48" transform="translate(571 4847)"><tspan x="0" y="0">Payment Methods</tspan></text>
      <text id="Frequent_Questions" data-name="Frequent Questions" class="cls-48" transform="translate(735 4847)"><tspan x="0" y="0">Frequent Questions</tspan></text>
      <text id="Size_Guide" data-name="Size Guide" class="cls-48" transform="translate(285 4847.5)"><tspan x="0" y="0">Size Guide</tspan></text>
    </g>
    <g id="Group_14066" data-name="Group 14066" transform="translate(-12 -1559)">
      <g id="Group_13886" data-name="Group 13886" transform="translate(-21)">
        <text id="STORES" class="cls-48" transform="translate(423 4899)"><tspan x="0" y="0">STORES</tspan></text>
        <g id="Rectangle_9658" data-name="Rectangle 9658" class="cls-49" transform="translate(403 4879)">
          <rect class="cls-50" width="97" height="29"/>
          <rect class="cls-51" x="0.5" y="0.5" width="96" height="28"/>
        </g>
      </g>
      <g id="Group_13887" data-name="Group 13887">
        <text id="TERMS_CONDITIONS" data-name="TERMS &amp; CONDITIONS" class="cls-48" transform="translate(537 4899)"><tspan x="0" y="0">TERMS &amp; CONDITIONS</tspan></text>
        <g id="Rectangle_9659" data-name="Rectangle 9659" class="cls-49" transform="translate(517 4879)">
          <rect class="cls-50" width="201" height="29"/>
          <rect class="cls-51" x="0.5" y="0.5" width="200" height="28"/>
        </g>
      </g>
      <g id="Group_13888" data-name="Group 13888" transform="translate(-4)">
        <text id="PRIVACY_POLICY" data-name="PRIVACY POLICY" class="cls-48" transform="translate(782 4899)"><tspan x="0" y="0">PRIVACY POLICY</tspan></text>
        <g id="Rectangle_9660" data-name="Rectangle 9660" class="cls-49" transform="translate(760 4879)">
          <rect class="cls-50" width="166" height="29"/>
          <rect class="cls-51" x="0.5" y="0.5" width="165" height="28"/>
        </g>
      </g>
    </g>
  </g>
</svg>
