<svg xmlns="http://www.w3.org/2000/svg" xmlns:xlink="http://www.w3.org/1999/xlink" viewBox="0 0 1331 170">
  <defs>
    <style>
      .cls-1 {
        clip-path: url(#clip-Header_-_Scroll);
      }

      .cls-2 {
        fill: #fff;
      }

      .cls-3, .cls-5, .cls-7 {
        fill: #393939;
      }

      .cls-3 {
        font-size: 13px;
        font-family: Raleway-Medium, Raleway;
        font-weight: 500;
      }

      .cls-4, .cls-6 {
        fill: none;
      }

      .cls-4, .cls-5 {
        stroke: #393939;
      }

      .cls-4 {
        stroke-width: 1.5px;
      }

      .cls-5 {
        stroke-width: 0.5px;
        fill-rule: evenodd;
      }

      .cls-6 {
        stroke: #ece9e6;
      }

      .cls-7 {
        font-size: 12px;
        font-family: Gotham-Bold, Gotham;
        font-weight: 700;
      }

      .cls-8 {
        fill: #686260;
      }

      .cls-9 {
        fill: #ebebeb;
      }
    </style>
    <clipPath id="clip-Header_-_Scroll">
      <rect width="1331" height="170"/>
    </clipPath>
  </defs>
  <g id="Header_-_Scroll" data-name="Header - Scroll" class="cls-1">
    <rect class="cls-9" width="1331" height="170"/>
    <g id="Group_11567" data-name="Group 11567" transform="translate(-2349 2257)">
      <rect id="Rectangle_1804" data-name="Rectangle 1804" class="cls-2" width="1280" height="80" transform="translate(2382 -2211)"/>
      <g id="Group_11564" data-name="Group 11564" transform="translate(2382 -2287)">
        <text id="Buscar" class="cls-3" transform="translate(1037.813 119)"><tspan x="0" y="0">Buscar</tspan></text>
        <line id="Line_3457" data-name="Line 3457" class="cls-4" x2="199" transform="translate(1037.5 126.5)"/>
        <path id="Path_1358" data-name="Path 1358" class="cls-5" d="M883.085-1650.7l3.575,3.576-.782.782-3.575-3.576a5.667,5.667,0,0,1-3.613,1.295,5.689,5.689,0,0,1-5.689-5.689,5.689,5.689,0,0,1,5.689-5.689,5.689,5.689,0,0,1,5.689,5.689A5.666,5.666,0,0,1,883.085-1650.7Zm-4.4-8.164a4.551,4.551,0,0,0-4.552,4.552,4.552,4.552,0,0,0,4.552,4.551,4.552,4.552,0,0,0,4.552-4.551A4.551,4.551,0,0,0,878.689-1658.863Z" transform="translate(344.37 1766)"/>
      </g>
      <line id="Line_3622" data-name="Line 3622" class="cls-6" x2="1280" transform="translate(2382.5 -2131.5)"/>
      <g id="Group_13713" data-name="Group 13713" transform="translate(125 -4)">
        <text id="COLECTIONS" class="cls-7" transform="translate(2882 -2162)"><tspan x="0" y="0">COLECTIONS</tspan></text>
        <text id="OUR_UNIVERSE" data-name="OUR UNIVERSE" class="cls-7" transform="translate(2667 -2162)"><tspan x="0" y="0">OUR UNIVERSE</tspan></text>
        <text id="HOME" class="cls-7" transform="translate(2594 -2162)"><tspan x="0" y="0">HOME</tspan></text>
        <text id="NEWSLETTER" class="cls-7" transform="translate(3018 -2162)"><tspan x="0" y="0">NEWSLETTER</tspan></text>
        <g id="Group_13534" data-name="Group 13534" transform="translate(4)">
          <g id="Group_12953" data-name="Group 12953" transform="translate(-2606.813 8971)">
            <text id="SHOP" class="cls-7" transform="translate(5400.813 -11133)"><tspan x="0" y="0">SHOP</tspan></text>
          </g>
          <path id="Path_14305" data-name="Path 14305" d="M-15030.5-5914.125h8.25l-4.125,6.625Z" transform="translate(17866 3744.125)"/>
        </g>
        <path id="Path_14352" data-name="Path 14352" d="M-15030.5-5914.125h8.25l-4.125,6.625Z" transform="translate(18005 3744.125)"/>
      </g>
    </g>
    <path id="Path_14383" data-name="Path 14383" class="cls-8" d="M-10571-7416h64.5l37.5,78.5h-102Z" transform="translate(10604 7462)"/>
    <path id="Exclusion_3" data-name="Exclusion 3" class="cls-2" d="M15293.424,3491.989h-1.041l-8.376-20.079-4.591,6.727v13.352h-.961v-13.348l-4.716-6.735-8.617,20.083h-1.046l9.016-21.009L15264,3458h1.171l8.364,11.943,5.124-11.943h.584l4.967,11.908,8.125-11.908h1.163l-8.848,12.965,8.771,21.025Zm-14.479-32.213h0l-4.76,11.092,4.745,6.777,4.635-6.792-4.62-11.077Z" transform="translate(-15203 -3389.279)"/>
  </g>
</svg>
