<svg xmlns="http://www.w3.org/2000/svg" xmlns:xlink="http://www.w3.org/1999/xlink" viewBox="0 0 1280 800">
  <defs>
    <style>
      .cls-1, .cls-10, .cls-13, .cls-20, .cls-23 {
        fill: none;
      }

      .cls-1, .cls-10, .cls-11, .cls-15 {
        stroke: #393939;
      }

      .cls-1 {
        stroke-width: 1.7px;
      }

      .cls-2 {
        clip-path: url(#clip-Home_-_Shop_despliegue);
      }

      .cls-3 {
        clip-path: url(#clip-path);
      }

      .cls-4 {
        fill: url(#pattern);
      }

      .cls-5 {
        clip-path: url(#clip-path-2);
      }

      .cls-6 {
        clip-path: url(#clip-path-3);
      }

      .cls-18, .cls-7 {
        fill: #dfdede;
      }

      .cls-7 {
        opacity: 0.27;
      }

      .cls-8 {
        font-size: 30px;
        font-family: GothamLight, Gotham;
        letter-spacing: 0.1em;
      }

      .cls-11, .cls-14, .cls-15, .cls-21, .cls-9 {
        fill: #393939;
      }

      .cls-9 {
        font-size: 13px;
        font-family: Raleway-Medium, Raleway;
        font-weight: 500;
      }

      .cls-10 {
        stroke-width: 1.5px;
      }

      .cls-11 {
        stroke-width: 0.5px;
        fill-rule: evenodd;
      }

      .cls-12 {
        fill: #2b2e34;
      }

      .cls-13 {
        stroke: #ece9e6;
      }

      .cls-14, .cls-18, .cls-19, .cls-21 {
        font-size: 12px;
      }

      .cls-14, .cls-18 {
        font-family: Raleway-SemiBold, Raleway;
        font-weight: 600;
      }

      .cls-15 {
        stroke-width: 0.2px;
      }

      .cls-16 {
        clip-path: url(#clip-path-4);
      }

      .cls-17 {
        fill: #686260;
      }

      .cls-18 {
        letter-spacing: 0.04em;
      }

      .cls-19, .cls-24 {
        fill: #fff;
      }

      .cls-19 {
        font-family: Raleway-Bold, Raleway;
        text-decoration: underline;
      }

      .cls-19, .cls-21 {
        font-weight: 700;
      }

      .cls-20 {
        stroke: #fff;
        stroke-width: 2px;
      }

      .cls-21 {
        font-family: Gotham-Bold, Gotham;
      }

      .cls-22 {
        stroke: none;
      }

      .cls-25 {
        filter: url(#Rectangle_9529);
      }
    </style>
    <clipPath id="clip-path">
      <path id="Path_14310" data-name="Path 14310" d="M816.691,1.1h389.422l267.429,642.709H542.7Z" transform="translate(-542.7 -1.1)"/>
    </clipPath>
    <pattern id="pattern" preserveAspectRatio="none" width="100%" height="100%" viewBox="0 0 1066 532">
      <image width="1066" height="532" xlink:href="Home%20-%20Shop%20despliegue-image.jpg"/>
    </pattern>
    <clipPath id="clip-path-2">
      <path id="Path_14311" data-name="Path 14311" d="M1621.9,1.1h419.49V642.535H1888.119Z" transform="translate(-1621.9 -1.1)"/>
    </clipPath>
    <clipPath id="clip-path-3">
      <path id="Path_14312" data-name="Path 14312" d="M692.685,1.1H260.9V642.535H419.268Z" transform="translate(-260.9 -1.1)"/>
    </clipPath>
    <clipPath id="clip-path-4">
      <rect id="Rectangle_16" data-name="Rectangle 16" class="cls-1" width="24" height="9.644"/>
    </clipPath>
    <filter id="Rectangle_9529" x="571" y="138" width="496" height="297" filterUnits="userSpaceOnUse">
      <feOffset dy="3" input="SourceAlpha"/>
      <feGaussianBlur stdDeviation="3" result="blur"/>
      <feFlood flood-opacity="0.161"/>
      <feComposite operator="in" in2="blur"/>
      <feComposite in="SourceGraphic"/>
    </filter>
    <clipPath id="clip-Home_-_Shop_despliegue">
      <rect width="1280" height="800"/>
    </clipPath>
  </defs>
  <g id="Home_-_Shop_despliegue" data-name="Home - Shop despliegue" class="cls-2">
    <rect class="cls-24" width="1280" height="800"/>
    <g id="Group_13584" data-name="Group 13584" transform="translate(-262.401 219.996)">
      <g id="Group_13570" data-name="Group 13570" transform="translate(440.418 1.1)">
        <g id="Group_13569" data-name="Group 13569" class="cls-3">
          <rect id="Rectangle_9575" data-name="Rectangle 9575" class="cls-4" width="1286.536" height="641.463" transform="translate(-179.54 -0.014)"/>
        </g>
      </g>
      <g id="Group_13572" data-name="Group 13572" transform="translate(1127.911 1.1)">
        <g id="Group_13571" data-name="Group 13571" class="cls-5">
          <image id="Rectangle_9576" data-name="Rectangle 9576" width="622.387" height="932.626" transform="translate(-55.127 -0.701)" xlink:href="Home%20-%20Shop%20despliegue-image2.jpg"/>
        </g>
      </g>
      <g id="Group_13574" data-name="Group 13574" transform="translate(260.9 1.1)">
        <g id="Group_13573" data-name="Group 13573" class="cls-6">
          <image id="Rectangle_9577" data-name="Rectangle 9577" width="622.63" height="932.635" transform="translate(-166.204 -0.701)" xlink:href="Home%20-%20Shop%20despliegue-image3.jpg"/>
        </g>
      </g>
    </g>
    <rect id="Rectangle_9581" data-name="Rectangle 9581" class="cls-7" width="1282" height="643" transform="translate(-2 221)"/>
    <text id="TODAY_FOR_YOU_TOMORROW_FOR_ME." data-name="TODAY FOR YOU,
TOMORROW FOR ME." class="cls-8" transform="translate(640 670)"><tspan x="-157.065" y="0">TODAY FOR YOU,</tspan><tspan x="-190.665" y="45">TOMORROW FOR ME.</tspan></text>
    <path id="Exclusion_7" data-name="Exclusion 7" d="M15349.531,3556.809h-3.023l-24.352-58.368L15308.813,3518v38.813h-2.793V3518l-13.711-19.578-25.051,58.382h-3.039l26.207-61.072L15264,3458h3.4l24.316,34.72,14.895-34.72h1.7l14.441,34.616,23.617-34.616h3.383l-25.719,37.689,25.5,61.12Zm-42.09-93.644h0l-13.836,32.245,13.793,19.7,13.477-19.745-13.434-32.2Z" transform="translate(-14666.777 -2964.549)"/>
    <g id="Group_13544" data-name="Group 13544" transform="translate(-497 60)">
      <text id="Buscar" class="cls-9" transform="translate(1037.813 119)"><tspan x="0" y="0">Buscar</tspan></text>
      <line id="Line_3457" data-name="Line 3457" class="cls-10" x2="199" transform="translate(1037.5 126.5)"/>
      <path id="Path_1358" data-name="Path 1358" class="cls-11" d="M883.085-1650.7l3.575,3.576-.782.782-3.575-3.576a5.667,5.667,0,0,1-3.613,1.295,5.689,5.689,0,0,1-5.689-5.689,5.689,5.689,0,0,1,5.689-5.689,5.689,5.689,0,0,1,5.689,5.689A5.666,5.666,0,0,1,883.085-1650.7Zm-4.4-8.164a4.551,4.551,0,0,0-4.552,4.552,4.552,4.552,0,0,0,4.552,4.551,4.552,4.552,0,0,0,4.552-4.551A4.551,4.551,0,0,0,878.689-1658.863Z" transform="translate(344.37 1766)"/>
    </g>
    <g id="Group_13545" data-name="Group 13545" transform="translate(580.158 90.447)">
      <g id="Group_13531" data-name="Group 13531" transform="translate(32.574 -47.112)">
        <path id="Path_14301" data-name="Path 14301" class="cls-12" d="M-7.036,0-22.289,22.353-37.942,0h-1.334l16.447,23.485V38.671h1.093V23.482L-5.714,0Z" transform="translate(39.276)"/>
      </g>
      <g id="Group_13532" data-name="Group 13532" transform="translate(74.186 -47.112)">
        <path id="Path_14302" data-name="Path 14302" class="cls-12" d="M-6.9,0V37.153L-37.325,0h-1.217V38.671h1.093V1.573l30.376,37.1h1.26V0Z" transform="translate(38.542)"/>
      </g>
      <g id="Group_13533" data-name="Group 13533" transform="translate(0 -47.113)">
        <path id="Path_14303" data-name="Path 14303" class="cls-12" d="M-3.622,0-20.215,38.673h1.19L-3.3,2.023l15.289,36.65h1.185L-2.959,0Z" transform="translate(20.215)"/>
      </g>
      <path id="Path_14304" data-name="Path 14304" class="cls-12" d="M145.561-8.441h1.093V-47.112h-1.093Z" transform="translate(-26.077 0)"/>
    </g>
    <line id="Line_3574" data-name="Line 3574" class="cls-13" x2="1280" transform="translate(0.5 155.5)"/>
    <text id="Compras" class="cls-14" transform="translate(1184.813 66)"><tspan x="0" y="0">Compras</tspan></text>
    <text id="Mi_Cuenta" data-name="Mi Cuenta" class="cls-14" transform="translate(1091.813 66)"><tspan x="0" y="0">Mi Cuenta</tspan></text>
    <g id="Group_11765" data-name="Group 11765" transform="translate(1163.961 49.219)">
      <path id="Path_1345" data-name="Path 1345" class="cls-15" d="M36.14,22.129v-.88a4.249,4.249,0,1,0-8.5,0v.88H24V36.393a.609.609,0,0,0,.607.607H39.174a.609.609,0,0,0,.607-.607V22.129H36.14Zm-7.284-.85a3.035,3.035,0,0,1,6.07,0v.88h-6.07Zm9.712,14.507H25.214V23.343h2.428v3.976h1.214V23.343h6.07v3.976H36.14V23.343h2.428Z" transform="translate(-24 -17)"/>
    </g>
    <g id="Group_11766" data-name="Group 11766" transform="translate(1065.834 49.219)">
      <g id="Group_2" data-name="Group 2" transform="translate(0)">
        <g id="Mask_Group_1" data-name="Mask Group 1" class="cls-16" transform="translate(0 9.75)">
          <g id="Ellipse_1" data-name="Ellipse 1" class="cls-1" transform="translate(2.25 2.25)">
            <ellipse class="cls-22" cx="9.75" cy="9" rx="9.75" ry="9"/>
            <ellipse class="cls-23" cx="9.75" cy="9" rx="8.9" ry="8.15"/>
          </g>
        </g>
        <g id="Ellipse_2" data-name="Ellipse 2" class="cls-1" transform="translate(6.75)">
          <ellipse class="cls-22" cx="5.625" cy="5.625" rx="5.625" ry="5.625"/>
          <ellipse class="cls-23" cx="5.625" cy="5.625" rx="4.775" ry="4.775"/>
        </g>
      </g>
    </g>
    <g class="cls-25" transform="matrix(1, 0, 0, 1, 0, 0)">
      <rect id="Rectangle_9529-2" data-name="Rectangle 9529" class="cls-17" width="478" height="279" transform="translate(580 144)"/>
    </g>
    <g id="Group_13428" data-name="Group 13428" transform="translate(306.057)">
      <text id="Saco_Jacket_Blusa_Polo_Top_Bividi_Vestido_Overall_Pantalón" data-name="Saco
Jacket
Blusa
Polo
Top
Bividi
Vestido
Overall
Pantalón" class="cls-18" transform="translate(480.406 189)"><tspan x="0" y="0">Saco</tspan><tspan x="0" y="24">Jacket</tspan><tspan x="0" y="48">Blusa</tspan><tspan x="0" y="72">Polo</tspan><tspan x="0" y="96">Top</tspan><tspan x="0" y="120">Bividi</tspan><tspan x="0" y="144">Vestido</tspan><tspan x="0" y="168">Overall</tspan><tspan x="0" y="192">Pantalón</tspan></text>
      <text id="Legging_Jeans_Falda_Short_Kimono_Body_Conjuntos_Chabuscas" data-name="Legging
Jeans
Falda
Short
Kimono
Body
Conjuntos
Chabuscas" class="cls-18" transform="translate(599.406 189)"><tspan x="0" y="0">Legging</tspan><tspan x="0" y="24">Jeans</tspan><tspan x="0" y="48">Falda</tspan><tspan x="0" y="72">Short</tspan><tspan x="0" y="96">Kimono</tspan><tspan x="0" y="120">Body</tspan><tspan x="0" y="144">Conjuntos</tspan><tspan x="0" y="168">Chabuscas</tspan></text>
      <g id="Group_13427" data-name="Group 13427" transform="translate(-255 -1489)">
        <text id="Ver_todo" data-name="Ver todo" class="cls-19" transform="translate(621.606 1680)"><tspan x="0" y="0">Ver todo</tspan></text>
        <g id="Group_13586" data-name="Group 13586" transform="translate(3393.838 -385.486)">
          <g id="Group_7551" data-name="Group 7551" transform="translate(-2886 2042)">
            <g id="Group_8064" data-name="Group 8064" transform="translate(43.475 9.911)">
              <path id="Path_588" data-name="Path 588" class="cls-20" d="M0,.731,6.41,0,5.68,6.41" transform="translate(55.174 5.702) rotate(45)"/>
              <line id="Line_3242" data-name="Line 3242" class="cls-20" x2="17.427" transform="translate(42.13 10.235)"/>
            </g>
          </g>
        </g>
      </g>
    </g>
    <g id="Group_13877" data-name="Group 13877" transform="translate(-2209 2294)">
      <text id="COLECTIONS" class="cls-21" transform="translate(2882 -2162)"><tspan x="0" y="0">COLECTIONS</tspan></text>
      <text id="OUR_UNIVERSE" data-name="OUR UNIVERSE" class="cls-21" transform="translate(2667 -2162)"><tspan x="0" y="0">OUR UNIVERSE</tspan></text>
      <text id="HOME" class="cls-21" transform="translate(2594 -2162)"><tspan x="0" y="0">HOME</tspan></text>
      <text id="NEWSLETTER" class="cls-21" transform="translate(3018 -2162)"><tspan x="0" y="0">NEWSLETTER</tspan></text>
      <g id="Group_13534" data-name="Group 13534" transform="translate(4)">
        <g id="Group_12953" data-name="Group 12953" transform="translate(-2606.813 8971)">
          <text id="SHOP" class="cls-21" transform="translate(5400.813 -11133)"><tspan x="0" y="0">SHOP</tspan></text>
        </g>
        <path id="Path_14305" data-name="Path 14305" d="M-15030.5-5914.125h8.25l-4.125,6.625Z" transform="translate(17866 3744.125)"/>
      </g>
      <path id="Path_14352" data-name="Path 14352" d="M-15030.5-5914.125h8.25l-4.125,6.625Z" transform="translate(18005 3744.125)"/>
    </g>
  </g>
</svg>
