<svg xmlns="http://www.w3.org/2000/svg" xmlns:xlink="http://www.w3.org/1999/xlink" viewBox="0 0 1018 837">
  <defs>
    <style>
      .cls-1 {
        clip-path: url(#clip-Tipografía);
      }

      .cls-2 {
        font-size: 50px;
        font-family: GothamThin, Gotham;
        letter-spacing: 0.1em;
      }

      .cls-3 {
        fill: #fff;
      }
    </style>
    <clipPath id="clip-Tipografía">
      <rect width="1018" height="837"/>
    </clipPath>
  </defs>
  <g id="Tipografía" class="cls-1">
    <rect class="cls-3" width="1018" height="837"/>
    <text id="TODAY_FOR_YOU_TOMORROW_FOR_ME." data-name="TODAY
FOR YOU,
TOMORROW
FOR ME." class="cls-2" transform="translate(509 220)"><tspan x="-100.55" y="0">TODAY</tspan><tspan x="-139.625" y="52">FOR YOU,</tspan><tspan x="-178.3" y="104">TOMORROW</tspan><tspan x="-118.85" y="156">FOR ME.</tspan></text>
    <text id="I_AM_A_WOMAN_WHAT_S_YOUR_SUPER_POWER_" data-name="I AM A WOMAN
WHAT&apos;S YOUR
SUPER POWER?" class="cls-2" transform="translate(509 636)"><tspan x="-221.05" y="0">I AM A WOMAN</tspan><tspan x="-204.775" y="60">WHAT&apos;S YOUR</tspan><tspan x="-230.95" y="120">SUPER POWER?</tspan></text>
    <path id="Exclusion_1" data-name="Exclusion 1" d="M15300.106,3499.709h-1.277l-10.278-24.639-5.634,8.255v16.384h-1.179v-16.38l-5.787-8.264-10.574,24.644h-1.283l11.063-25.78L15264,3458h1.438l10.264,14.656,6.288-14.656h.716l6.095,14.612,9.971-14.612h1.427l-10.856,15.91,10.763,25.8Zm-17.768-39.53h0l-5.841,13.612,5.823,8.316,5.688-8.335-5.67-13.593Z" transform="translate(-14773 -3354.999)"/>
    <path id="Exclusion_2" data-name="Exclusion 2" d="M15300.106,3499.709h-1.277l-10.278-24.639-5.634,8.255v16.384h-1.179v-16.38l-5.787-8.264-10.574,24.644h-1.283l11.063-25.78L15264,3458h1.438l10.264,14.656,6.288-14.656h.716l6.095,14.612,9.971-14.612h1.427l-10.856,15.91,10.763,25.8Zm-17.768-39.53h0l-5.841,13.612,5.823,8.316,5.688-8.335-5.67-13.593Z" transform="translate(-14773 -2938.999)"/>
  </g>
</svg>
